<svg width="960" height="637" viewBox="0 0 960 637" fill="none" xmlns="http://www.w3.org/2000/svg">
<path d="M54.1557 625C54.1557 625 -71.1997 484.924 59.5262 362.973C204.82 227.44 67.5435 75.7984 212.309 21.8108C416.448 -54.3162 453.038 96.2554 681.644 58.9291C872.541 27.7608 868.487 271.292 812.07 358.201C765.292 430.261 945.576 465.975 853.298 624.673L54.1557 625Z" fill="#ECEEFF"/>
<path opacity="0.6" d="M256.093 623.551C251.46 617.633 183.561 508.467 259.182 383.891C334.804 259.315 524.619 273.861 600.24 322.405C675.862 370.949 712.89 434.038 720.613 500.373C728.335 566.708 677.406 621.049 677.406 621.049L256.093 623.551Z" fill="#CDD2FC"/>
<path d="M31.5217 422.287C37.5024 427.551 45.0851 430.923 50.3335 437.01C52.3932 439.406 54.2545 441.954 56.1769 444.471C57.5805 446.302 61.3032 449.338 61.8982 451.627C62.1576 452.633 62.1118 451.26 61.8372 450.253C61.822 450.208 61.8067 450.177 61.7914 450.131C61.2727 445.478 60.8913 440.809 60.7235 436.125C60.5556 431.457 60.8455 426.773 60.5556 422.12C60.1437 415.544 58.084 409.182 52.7136 405.062C50.0894 403.048 46.7176 401.828 44.2917 399.585C42.0032 397.464 42.9186 395.039 44.2612 392.674C45.5276 390.461 47.0532 388.28 47.5415 385.732C48.106 382.833 47.0075 379.843 45.5428 377.386C42.4151 372.138 35.4885 366.279 28.9128 367.073C23.4355 367.729 22.81 374.045 22.9015 378.439C22.9778 382.711 23.405 386.983 23.4355 391.255C23.4813 395.649 22.7337 399.967 22.6727 404.345C22.6116 411.791 26.0445 417.466 31.5217 422.287Z" fill="#8584FF"/>
<path d="M87.1332 490.608C88.7962 486.626 90.7185 482.918 93.0681 479.302C96.2873 474.344 99.8727 469.507 102.039 463.954C104.251 458.278 103.931 452.221 104.145 446.256C104.297 441.862 105.609 437.498 105.258 433.089C105.091 430.984 103.87 427.566 101.139 427.917C99.0183 428.192 97.752 430.816 96.9434 432.509C95.5245 435.439 94.5328 438.566 93.48 441.648C93.0681 442.854 92.6714 444.074 92.1527 445.234C91.8475 445.905 90.8864 447.553 89.9709 447.339C88.4147 446.958 89.8336 440.626 90.0625 439.497C91.222 433.867 92.9613 428.634 93.2054 422.837C93.5563 414.43 92.9003 404.437 84.6768 399.829C82.5256 398.624 79.8098 397.907 77.7654 399.707C75.7515 401.477 75.187 404.543 74.8818 407.076C73.9664 414.842 75.7972 422.18 78.2841 429.489C80.3438 435.515 82.7849 441.74 82.968 448.194C83.1358 454.403 79.9166 459.896 78.3909 465.77C75.9803 475.107 76.4686 480.065 76.4686 483.086C76.4533 486.87 76.5906 490.623 76.8652 494.407C77.1246 497.885 77.4145 501.349 77.8417 504.812C77.9332 505.514 78.0095 506.246 78.1011 506.979C76.7584 503.759 76.3007 500.082 75.187 496.848C73.2188 491.111 70.9455 485.481 69.0537 479.714C67.4975 474.954 66.0176 470.148 63.9731 465.556C62.0508 461.253 59.7164 456.707 56.1158 453.549C53.9341 451.642 51.3099 450.528 48.3958 450.543C46.5345 450.558 44.8562 451.199 43.0864 451.672C40.9047 452.252 39.1806 452.054 37.3803 450.665C31.4911 446.134 29.6908 438.017 25.3426 432.281C22.0929 428.009 14.3728 420.716 8.69727 425.384C5.69166 427.856 4.85253 432.631 5.02035 436.308C5.21869 440.901 7.2326 445.112 9.61268 448.956C12.1606 453.045 15.4408 456.707 17.7751 460.903C19.1635 463.389 19.3771 465.77 19.1483 468.562C18.9347 471.201 18.7058 473.749 19.606 476.297C22.3064 483.941 30.7435 482.873 37.304 483.071C41.8964 483.208 46.8091 483.895 51.1726 485.359C56.2074 487.053 59.4876 490.333 61.2879 495.307C62.5847 498.908 63.2866 502.996 65.7429 506.063C66.9025 507.497 68.4282 508.565 70.1064 509.313C72.6696 510.442 80.4659 510.93 80.5116 510.228C80.71 507.848 81.839 505.331 82.5408 503.073C83.8529 498.847 85.4091 494.697 87.1332 490.608Z" fill="#8584FF"/>
<path d="M123.337 489.159C122.666 484.795 122.788 479.974 120.729 475.961C120.576 475.671 120.195 475.595 119.92 475.748C118.44 476.572 118.379 478.967 118.257 480.432C118.059 482.873 118.211 485.314 117.906 487.74C117.387 492.012 116.396 496.406 114.855 500.418C113.115 504.965 109.957 507.543 105.365 508.962C102.42 509.878 99.5214 510.671 97.0498 512.624C94.8375 514.378 93.3118 516.789 92.1828 519.337C89.1162 526.218 87.6515 533.892 86.2326 541.246C85.2714 546.189 84.4933 551.163 83.288 556.06C82.0827 560.958 80.8012 565.825 80.1146 570.829C79.9925 571.088 79.8705 571.332 79.7637 571.592C79.4433 572.339 80.6181 572.736 81.0148 572.126C85.7597 564.833 91.5268 558.272 99.4146 554.26C102.969 552.444 107.699 552.063 110.674 549.21C112.932 547.043 113.237 543.733 112.902 540.773C112.459 536.898 110.598 533.709 108.66 530.398C107.592 528.583 106.341 526.645 106.768 524.433C107.18 522.358 108.904 520.817 110.613 519.749C113.893 517.72 117.723 516.804 120.393 513.875C122.88 511.159 124.268 507.757 124.543 504.095C124.924 499.228 124.085 493.995 123.337 489.159Z" fill="#8584FF"/>
<path d="M58.709 514.363C54.5286 508.977 49.4785 504.324 43.803 500.556C40.7668 498.542 33.6266 494.575 32.1772 500.51C31.3381 503.988 34.7403 507.406 36.9831 509.588C40.3549 512.868 44.2454 515.69 47.0832 519.474C43.5589 520.603 39.8819 520.817 36.8305 523.243C33.2147 526.126 31.5822 531.68 35.1828 535.219C36.9373 536.943 39.2564 537.996 41.4229 539.049C44.2607 540.422 47.1442 541.658 50.043 542.878C56.3136 545.502 62.6605 548.157 68.0005 552.444C73.4472 556.808 78.5735 564.207 79.0007 571.332C79.0465 572.019 78.7871 571.394 79.1838 571.088C79.4126 571.287 80.145 570.936 80.145 570.539C80.0382 559.966 78.1311 549.881 73.8133 540.193C69.8008 531.191 64.7507 522.144 58.709 514.363Z" fill="#8584FF"/>
<path d="M44.2457 415.864C46.5495 420.655 48.9601 425.339 51.5233 430.007C53.9949 434.508 56.4513 438.963 58.2974 443.769C60.5706 449.674 62.9507 455.486 65.3461 461.345C67.8482 467.433 70.0757 473.627 71.8608 479.959C75.3546 492.317 77.9483 505.026 79.2299 517.811C79.8859 524.311 80.1758 530.84 79.9927 537.37C79.8554 542.466 79.2757 547.516 78.8027 552.597C78.2992 557.876 77.9483 563.231 78.3907 568.525C78.7569 572.95 79.4587 578.229 82.9068 581.387C83.5781 582.012 84.5393 581.234 84.1426 580.441C80.0538 572.065 80.2826 562.926 81.0607 553.848C81.4879 548.828 82.0829 543.839 82.266 538.805C82.4796 532.397 82.2355 525.974 81.6252 519.596C80.4352 507.055 77.933 494.666 74.6986 482.507C73.0356 476.266 70.9759 470.148 68.6111 464.152C66.231 458.141 63.4847 452.283 61.1809 446.241C57.0158 435.302 50.6689 425.613 45.0391 415.422C44.7645 414.873 44.0016 415.33 44.2457 415.864Z" fill="#BFBFFF"/>
<path d="M79.4448 505.285C80.1008 497.321 80.8179 489.647 83.4879 482.064C84.7389 478.524 86.2494 475.076 87.4699 471.521C88.4616 468.577 89.9568 464.549 89.1939 461.421C89.1024 461.07 88.5989 461.086 88.5074 461.421C87.9886 463.206 88.0497 465.159 87.6835 466.99C87.3173 468.775 86.8444 470.514 86.2951 472.254C85.1203 475.931 83.5794 479.455 82.252 483.086C79.6736 490.089 78.3463 497.84 78.9108 505.285C78.926 505.636 79.4142 505.636 79.4448 505.285Z" fill="#BFBFFF"/>
<path d="M33.2917 459.515C36.4499 467.143 45.955 467.586 52.8816 469.294C57.8249 470.515 61.4713 473.81 64.0955 478.098C66.9638 482.782 68.9014 488.274 70.5034 493.507C70.5187 493.568 70.6102 493.538 70.5949 493.477C68.6573 484.322 65.8805 473.307 56.4518 469.05C48.8843 465.633 38.9215 467.357 34.1003 459.179C33.841 458.782 33.1087 459.057 33.2917 459.515Z" fill="#BFBFFF"/>
<path d="M74.4383 504.08C74.8197 504.584 75.1554 505.118 75.552 505.621C75.7504 505.865 75.9335 506.094 76.1776 506.293C76.4217 506.491 76.7116 506.75 77.0625 506.735C77.1998 506.735 77.3066 506.567 77.2303 506.445C77.0777 506.186 76.7879 506.033 76.5743 505.85C76.3454 505.652 76.1165 505.453 75.9029 505.24C75.4605 504.828 75.0638 504.37 74.6214 503.943C74.5298 503.867 74.362 503.974 74.4383 504.08Z" fill="#43588E"/>
<path d="M54.6806 528.293C60.1274 532.763 65.1622 538.057 69.1595 543.87C71.0666 546.647 72.8364 549.576 74.4384 552.536C76.1777 555.77 77.3372 559.188 78.6951 562.59C78.8019 562.85 79.2748 562.85 79.2291 562.514C78.4662 555.328 73.9196 549.179 70.2885 543.199C68.3966 540.102 66.0471 537.599 63.5144 535.006C60.9055 532.336 58.2355 529.803 55.1841 527.652C54.8027 527.392 54.3297 528.003 54.6806 528.293Z" fill="#BFBFFF"/>
<path d="M98.0877 519.84C95.4635 521.336 95.372 525.47 95.3262 528.125C95.2346 533.221 96.4857 537.996 94.2582 542.848C92.2443 547.227 89.0251 550.888 86.4924 554.947C84.1276 558.761 81.778 563.628 81.8391 568.205C81.8391 568.464 82.251 568.617 82.373 568.342C83.3342 566.267 83.6699 563.902 84.3565 561.721C85.1193 559.264 86.2025 557.037 87.5909 554.886C90.032 551.102 93.0224 547.669 95.0058 543.611C97.096 539.324 96.7908 535.082 96.6535 530.444C96.562 527.484 96.2721 522.724 98.6522 520.527C99.0031 520.191 98.5301 519.596 98.0877 519.84Z" fill="#BFBFFF"/>
<path d="M80.5409 568.677C69.9679 568.525 49.8135 568.418 49.8135 568.418L54.8025 605.431C55.9315 613.762 63.026 619.971 71.4325 619.971H80.1137H80.9529H89.6341C98.0406 619.971 105.15 613.762 106.264 605.431L111.253 568.418C111.253 568.418 91.114 568.525 80.5409 568.677Z" fill="white"/>
<path d="M960 620H25V629H960V620Z" fill="#01008A"/>
<path d="M388.398 588.247C388.398 588.247 386.66 597.571 385.763 606.808C385.412 610.419 388.169 613.582 391.79 613.767C404.098 614.398 430.425 615.647 439.878 615.313C441.299 615.262 442.24 613.818 441.727 612.492C441.299 611.381 440.455 610.477 439.378 609.967L396.066 589.56L388.398 588.247Z" fill="url(#paint0_linear_471_4235)"/>
<path d="M387.098 582.746L388.316 593.93C388.316 593.93 395.903 597.551 401.144 593.606L398.106 581.126L387.098 582.746Z" fill="url(#paint1_linear_471_4235)"/>
<path d="M390.099 372.727C389.498 375.639 385.637 518.283 400.277 582.365C400.517 583.411 399.977 584.481 398.981 584.875C396.633 585.81 392.036 587.15 386.539 587.282C384.838 587.322 383.322 586.202 382.857 584.565C378.638 569.689 358.46 495.169 356.411 424.146C354.123 344.783 356.438 421.446 356.438 421.446L358.693 372.423L390.099 372.727Z" fill="url(#paint2_linear_471_4235)"/>
<path d="M338.309 592.641C338.309 592.641 335.636 597.332 332.976 609.836C332.497 612.093 334.056 614.273 336.351 614.523C340.415 614.962 346.668 615.536 351.68 615.549C353.991 615.556 355.814 613.561 355.557 611.263C355.044 606.684 353.387 599.164 348.099 593.265L338.309 592.641Z" fill="url(#paint3_linear_471_4235)"/>
<path d="M336.139 578.251L339.075 595.176C339.075 595.176 342.115 597.484 348.19 595.888L346.884 577.697L336.139 578.251Z" fill="url(#paint4_linear_471_4235)"/>
<path d="M329.696 376.527C316.504 451.681 330.628 562.595 335.538 584.325C335.838 585.655 336.902 586.684 338.245 586.917C340.526 587.319 344.286 587.663 348.005 586.62C349.287 586.262 350.195 585.118 350.259 583.789C351.113 566.267 350.904 458.65 362.932 416.235C363.542 414.085 364.876 412.219 366.708 410.94L389.417 395.119L391.395 369.214L329.696 376.527Z" fill="url(#paint5_linear_471_4235)"/>
<path d="M530.127 248.674C530.745 242.949 527.5 240.5 527.5 240.5C507.015 252.768 464 244 442.999 234C438.446 241.135 433.19 251.082 431.936 265.494C486.054 281.439 530.127 248.674 530.127 248.674Z" fill="url(#paint6_linear_471_4235)"/>
<path d="M394 234.5C356.627 233.525 331.818 243.724 331.818 243.724C320.057 308.628 328.534 383.701 328.534 383.701C357.399 391.565 390.159 379.648 390.159 379.648C395.228 352.521 418.396 276.26 418.396 276.26C436.681 274.168 439.547 276.847 452 270C442.655 258.954 449.856 244.258 448 236C435 229 398.467 231.841 394 234.5Z" fill="#FF3874"/>
<path d="M528.697 248.824C528.089 249.951 523.653 248.063 525.405 242.7C527.058 240.964 533.389 232.765 535.786 232.43C548.543 230.642 568.18 232.141 568.18 232.141C568.157 235.649 564.99 235.863 564.99 235.863L554.64 235.937C553.746 238.902 553.384 241.805 551.631 244.705C550.306 246.9 548.128 248.467 545.637 249.143C543.136 249.823 539.827 250.648 537.043 251.096C531.776 251.94 528.697 248.824 528.697 248.824Z" fill="url(#paint7_linear_471_4235)"/>
<path d="M548.982 237.068L540.458 236.251L535.08 238.626L534.515 247.304C534.515 247.304 543.717 241.076 546.428 240.468C549.136 239.863 549.432 238.523 548.982 237.068Z" fill="url(#paint8_linear_471_4235)"/>
<path d="M345.811 280.054L331.819 243.724C331.819 243.724 296.68 267.111 290.649 297.134C297.24 297.684 309.228 299.513 320.922 305.558C323.642 291.38 345.811 280.054 345.811 280.054Z" fill="#FF3874"/>
<path d="M375.995 314.399C375.995 314.399 336.584 336.177 323.54 317.136C320.83 313.181 320.213 309.273 320.925 305.557C309.231 299.513 297.244 297.681 290.653 297.134C288.833 306.185 289.657 315.837 294.895 325.634C317.658 368.235 381.095 324.116 381.095 324.116L375.995 314.399Z" fill="url(#paint9_linear_471_4235)"/>
<path d="M372.961 203.951L360.741 238.233C360.539 238.8 360.768 239.434 361.291 239.731C364.517 241.554 376.147 246.846 390.308 238.057C391.783 237.143 392.795 235.634 393.035 233.917L397.169 204.184L372.961 203.951Z" fill="url(#paint10_linear_471_4235)"/>
<path d="M399.142 172.35C399.142 172.35 411.967 197.057 410.198 206.972C408.43 216.887 392.251 216.02 378.195 207.819L368.573 181.178L399.142 172.35Z" fill="url(#paint11_linear_471_4235)"/>
<path d="M378.944 194.789C379.521 194.539 379.74 193.837 379.4 193.311C378.367 191.701 376.44 188.424 375.839 185.562C375.839 185.562 373.507 184.037 381.846 182.123C390.189 180.21 402.632 177.236 405.308 170.176C407.917 163.292 401.4 145.857 390.604 159.596C390.192 160.119 389.399 160.123 388.998 159.593C387.273 157.301 382.72 152.536 376.315 155.337C370.318 157.959 369.606 162.326 369.667 164.534C369.683 165.181 369.1 165.681 368.462 165.553C365.448 164.949 358.209 164.385 354.757 171.783C351.915 177.878 353.69 181.36 355.324 183.068C355.853 183.622 355.61 184.523 354.875 184.742C352.884 185.329 350.309 186.99 350.518 191.64C350.811 198.069 358 197.573 360.048 197.3C360.382 197.256 360.72 197.374 360.946 197.627C362.681 199.584 370.504 207.9 379.049 208.977C379.788 209.071 380.368 208.346 380.132 207.637L376.534 196.844C376.366 196.341 376.612 195.798 377.098 195.589L378.944 194.789Z" fill="url(#paint12_linear_471_4235)"/>
<path d="M380.415 196.331C380.415 196.331 371.178 189.862 370.446 195.228C369.717 200.594 378.745 203.091 383.25 201.13L380.415 196.331Z" fill="url(#paint13_linear_471_4235)"/>
<path d="M367.94 348.819L389.408 273.848C389.65 272.997 390.376 272.376 391.257 272.275C395.148 271.823 406.417 270.547 419.43 269.447C435.106 268.12 453.307 267.047 464.187 267.962C465.733 268.09 466.667 269.727 465.979 271.117C459.793 283.631 434.35 334.537 421.607 351.212C421.185 351.766 420.53 352.086 419.835 352.079L370.026 351.617C368.581 351.604 367.542 350.213 367.94 348.819Z" fill="url(#paint14_linear_471_4235)"/>
<path d="M373.127 330.707C373.127 330.707 370.137 318.409 371.342 314.049C372.547 309.685 374.885 304.076 382.674 305.325C390.464 306.57 399.657 309.854 399.657 309.854C399.657 309.854 399.191 315.537 393.271 313.704L396.943 316.546C396.943 316.546 396.417 321.095 391.419 318.665L394.834 322.432C394.834 322.432 392.688 326.168 389.006 323.771C385.327 321.369 383.562 332.188 373.127 330.707Z" fill="url(#paint15_linear_471_4235)"/>
<path d="M418.002 291.826C418.002 295.305 420.823 298.127 424.303 298.127C427.782 298.127 430.604 295.305 430.604 291.826C430.604 288.346 427.782 285.525 424.303 285.525C420.823 285.525 418.002 288.346 418.002 291.826Z" fill="#7D97F4"/>
<path d="M391.837 295.98L390.23 295.504L394.601 280.678C395.313 278.262 397.264 276.45 399.687 275.947C413.54 273.055 450.029 272.464 451.575 272.44L451.602 274.114C451.224 274.118 413.726 274.725 400.028 277.584C398.209 277.962 396.744 279.328 396.207 281.151L391.837 295.98Z" fill="#DAE3FE"/>
<path d="M137.767 505.793C135.479 509.178 126.384 585.851 124.96 614.165C124.862 616.079 126.394 617.675 128.311 617.675C129.964 617.675 131.372 616.47 131.625 614.837L148.259 508.229L137.767 505.793Z" fill="#A6ADEE"/>
<path d="M210.892 505.793C213.18 509.178 222.275 585.851 223.699 614.165C223.797 616.079 222.265 617.675 220.348 617.675C218.694 617.675 217.287 616.47 217.034 614.837L200.399 508.229L210.892 505.793Z" fill="#A6ADEE"/>
<path d="M124.007 499.809L124 500.646C123.946 506.66 129.127 511.594 135.617 511.706L212.512 513.015C218.907 513.123 224.236 508.503 224.547 502.58L224.587 501.814C224.911 495.638 219.667 490.434 212.998 490.316L136.069 488.936C129.485 488.818 124.061 493.704 124.007 499.809Z" fill="#A6ADEE"/>
<path d="M285.987 611.381C272.319 611.381 266.271 610.21 263.564 609.14C264.091 611.385 266.089 613.156 268.617 613.156H316.975C318.601 613.156 319.631 611.597 319.242 610.187C313.731 610.629 302.021 611.381 285.987 611.381Z" fill="#A6ADEE"/>
<path d="M319.244 610.187C319.166 609.903 319.051 609.623 318.849 609.363C315.163 604.659 307.766 597.275 297.699 597.416C282.954 597.622 277.811 599.222 266.353 597.507L263.65 606.468C263.373 607.382 263.37 608.293 263.569 609.14C266.272 610.21 272.32 611.381 285.991 611.381C302.022 611.381 313.733 610.629 319.244 610.187Z" fill="#2B478B"/>
<path d="M269.671 587.852L266.354 599.137C266.354 599.137 273.704 602.485 280.17 599.799L281.439 590.022L269.671 587.852Z" fill="url(#paint16_linear_471_4235)"/>
<path d="M369.896 604.274C359.242 612.836 353.795 615.715 351.021 616.578C352.829 617.993 355.492 618.114 357.463 616.531L395.16 586.242C396.429 585.223 396.26 583.37 395.076 582.516C391.053 586.316 382.396 594.23 369.896 604.274Z" fill="#A6ADEE"/>
<path d="M395.076 582.52C394.836 582.347 394.573 582.202 394.253 582.128C388.448 580.788 378.077 579.691 370.318 586.107C358.952 595.502 355.941 599.964 345.938 605.809L349.418 614.456C349.772 615.336 350.336 616.048 351.021 616.582C353.795 615.718 359.242 612.839 369.896 604.277C382.397 594.23 391.053 586.316 395.076 582.52Z" fill="#2B478B"/>
<path d="M198.688 459.271C198.688 459.271 280.524 465.953 297.314 473.857C314.104 481.761 283.612 592.526 283.612 592.526C283.612 592.526 279.042 594.727 268.871 591.564C268.871 591.564 279.299 509.823 271.54 492.098L182.931 477.603L198.688 459.271Z" fill="url(#paint17_linear_471_4235)"/>
<path d="M337.809 590.248C338.568 590.94 345.939 605.806 345.939 605.806C345.939 605.806 354.146 604.031 355.817 598.837L348.433 585.419L337.809 590.248Z" fill="url(#paint18_linear_471_4235)"/>
<path d="M149.395 458.586C149.395 458.586 146.729 465.002 146.837 473.53C146.989 485.325 156.469 494.892 168.25 495.48L264.997 499.89C267.039 499.985 268.77 501.399 269.279 503.377C271.554 512.171 282.664 539.174 336.985 593.059C338.43 594.494 340.681 594.737 342.402 593.65L350.134 588.767C350.947 588.254 351.203 587.191 350.721 586.36L294.392 490.168C291.432 485.284 286.677 481.758 281.145 480.343L198.688 459.264L149.395 458.586Z" fill="url(#paint19_linear_471_4235)"/>
<path d="M244.737 308.325C244.737 308.325 234.373 326.65 223.807 335.526L245.649 347.712C245.649 347.712 250.569 328.314 261.814 322.634L244.737 308.325Z" fill="url(#paint20_linear_471_4235)"/>
<path d="M147.642 459.271C147.642 459.271 173.759 465.636 198.689 459.271C198.689 459.271 233.572 412.378 247.067 399.614C247.067 399.614 268.596 433.582 316.508 438.398L319.181 432.428C319.181 432.428 281.035 414.845 269.294 387.826C257.55 360.807 252.835 349.285 242.15 342.235C235.495 337.844 231.513 334.844 229.454 333.207C228.327 332.31 226.771 332.209 225.543 332.958C214.203 339.866 160.854 376.405 147.642 459.271Z" fill="#FF3874"/>
<path d="M245.649 398.953C245.146 398.953 244.65 398.727 244.319 398.298C236 387.455 231.37 375.498 231.178 374.998C230.847 374.134 231.279 373.166 232.143 372.835C233.007 372.504 233.975 372.936 234.306 373.8C234.353 373.918 238.967 385.818 246.979 396.263C247.542 396.999 247.404 398.048 246.668 398.612C246.364 398.841 246.007 398.953 245.649 398.953Z" fill="#CA2556"/>
<path d="M313.627 429.306L319.02 427.868L335.395 424.075C337.366 423.619 339.438 423.967 341.149 425.047L355.228 433.906L316.347 433.842L313.627 429.306Z" fill="url(#paint21_linear_471_4235)"/>
<path d="M261.193 280.851C261.193 280.851 271.264 297.593 273.012 306.847C274.76 316.101 277.565 321.885 267.032 325.182C256.499 328.48 246.712 324.305 240.57 315.669C240.57 315.669 230.975 302.375 231.934 296.287C232.892 290.199 261.193 280.851 261.193 280.851Z" fill="url(#paint22_linear_471_4235)"/>
<path d="M243.377 308.507L244.741 308.328C244.741 308.328 237.61 297.552 242.277 294.88C246.945 292.207 265.962 285.646 269.262 278.157C272.445 270.938 267.683 262.782 261.942 261.077C261.578 260.969 261.196 261.185 261.065 261.54L260.727 262.447C260.498 263.072 259.624 263.095 259.357 262.488C259.104 261.911 258.277 261.887 258.017 262.461C256.998 264.705 253.951 268.536 244.805 271.502C231.829 275.711 223.746 282.251 224.738 291.471C224.802 292.055 224.222 292.456 223.685 292.22C222.625 291.751 221.016 291.677 219.149 293.719C215.903 297.269 218.447 305.038 227.317 310.535C227.738 310.795 227.813 311.393 227.435 311.713C226.108 312.851 224.242 315.382 230.242 317.639C236.381 319.948 239.729 319.168 240.968 318.672C241.302 318.537 241.491 318.193 241.423 317.842L239.847 309.763C239.766 309.344 240.053 308.946 240.475 308.888L243.377 308.507Z" fill="url(#paint23_linear_471_4235)"/>
<path d="M243.935 310.164C243.935 310.164 239.49 299.206 234.822 303.057C230.155 306.907 239.136 315.422 243.283 315.307L243.935 310.164Z" fill="url(#paint24_linear_471_4235)"/>
<path d="M298.605 441.532C298.669 441.536 298.734 441.536 298.798 441.536L381.862 441.451C383.914 441.451 385.578 439.788 385.575 437.736C385.571 435.684 383.901 433.993 381.852 434.027L298.788 434.111C296.736 434.111 295.072 435.775 295.075 437.827C295.079 439.815 296.641 441.438 298.605 441.532Z" fill="url(#paint25_linear_471_4235)"/>
<path d="M414.031 360.186C414.001 360.243 413.974 360.3 413.947 360.358L378.997 435.711C378.133 437.574 378.94 439.781 380.799 440.645C382.659 441.509 384.9 440.706 385.73 438.833L420.68 363.479C421.543 361.617 420.737 359.409 418.877 358.545C417.079 357.712 414.949 358.448 414.031 360.186Z" fill="url(#paint26_linear_471_4235)"/>
<path d="M631.544 517.264H622.776V612.076H631.544V517.264Z" fill="#A6ADEE"/>
<path d="M665.557 613.902H588.77C588.77 610.75 591.324 608.195 594.476 608.195H659.85C663.002 608.195 665.557 610.75 665.557 613.902Z" fill="#A6ADEE"/>
<path d="M676.953 513.974C676.953 519.161 672.711 523.403 667.524 523.403H589.836C584.648 523.403 580.406 519.161 580.406 513.974V505.449C580.406 500.262 584.648 496.02 589.836 496.02H667.524C672.711 496.02 676.953 500.262 676.953 505.449V513.974Z" fill="#A6ADEE"/>
<path d="M562.438 454.046C562.438 454.046 549.411 456.065 534.764 465.858C532.459 467.401 531.194 470.087 531.541 472.838C533.296 486.732 540.505 531.698 564.287 575.615C565.543 577.93 565.9 580.626 565.347 583.201L561.216 602.428L553.555 609.613H573.288L586.426 574.055L580.807 572.28C576.45 570.903 573.463 566.897 573.382 562.328L572.724 524.186C573.288 507.193 562.303 495.466 562.303 495.466L593.817 493.934L562.438 454.046Z" fill="url(#paint27_linear_471_4235)"/>
<path d="M545.848 613.079C544.049 615.431 565.193 618.536 575.871 613.389C575.871 613.389 590.676 587.629 590.676 574.366C590.676 574.366 589.502 571.663 580.808 572.274C580.808 572.274 575.837 602.775 570.589 606.191C565.341 609.606 555.902 606.535 555.902 606.535C555.902 606.535 548.501 609.61 545.848 613.079Z" fill="#2B478B"/>
<path d="M589.836 496.019C589.667 495.729 555.906 491.959 555.906 491.959C555.906 491.959 557.009 502.226 553.557 516.356C550.104 530.49 500.531 591.716 500.531 591.716L505.729 608.192C489.658 613.791 473.85 614.685 458.292 611.047L490.505 591.716C490.505 591.716 520.652 488.979 539.119 470.651L572.962 458.94L589.836 496.019Z" fill="url(#paint28_linear_471_4235)"/>
<path d="M665.556 436.241C665.556 436.241 685.009 465.173 686.605 478.372C688.201 491.571 681.276 496.934 660.865 497.818C640.454 498.702 585.964 498.689 585.964 498.689L539.459 458.943C539.459 458.943 573.349 446.851 582.161 443.429C590.972 440.011 665.556 436.241 665.556 436.241Z" fill="url(#paint29_linear_471_4235)"/>
<path d="M503.764 602.647C503.764 602.647 509.359 608.067 505.579 614.098C505.579 614.098 461.248 621.955 449.213 618.391C449.213 618.391 451.714 612.687 465.264 606.194L464.265 606.96C462.999 607.932 463.742 609.957 465.334 609.866C474.264 609.356 492.748 607.72 503.764 602.647Z" fill="#2B478B"/>
<path d="M581.294 252.748C621.059 245.988 639.78 278.42 638.413 285.234C638.231 286.139 639.084 286.901 639.972 286.662C644.538 285.433 654.622 283.884 660.876 291.717C666.397 298.632 662.269 305.159 658.908 308.743C658.095 309.607 658.78 311.015 659.958 310.866C668.351 309.806 686.589 309.553 689.572 326.637C692.356 342.569 681.266 347.061 674.689 348.33C673.575 348.543 673.315 350.007 674.274 350.615C677.554 352.697 681.358 356.997 679.819 365.484C677.412 378.788 651.328 377.701 648.277 377.526C648.085 377.516 647.903 377.458 647.734 377.364L605.954 353.534C605.626 353.348 605.404 353.028 605.339 352.657L596.906 303.944C596.838 303.549 596.96 303.148 597.236 302.858L569.998 264.422C560.11 262.967 580.825 252.826 581.294 252.748Z" fill="url(#paint30_linear_471_4235)"/>
<path d="M612.946 432.41C612.946 432.41 590.294 410.842 579.144 396.553C573.117 388.831 571.223 378.663 574.011 369.271C579.1 352.12 588.148 334.355 588.975 331.591C590.24 327.352 615.639 327.531 615.639 327.531C615.639 327.531 665.621 359.97 685.259 414.919L663.204 421.787C663.204 421.787 650.154 399.891 637.259 385.973C637.259 385.973 659.57 415.449 660.356 427.514L612.946 432.41Z" fill="#FF3874"/>
<path d="M585.904 307.907C586.171 308.787 592.799 330.764 593.319 331.22C593.839 331.675 607.858 332.431 614.455 327.919L598.084 295.899L585.904 307.907Z" fill="url(#paint31_linear_471_4235)"/>
<path d="M559.327 279.666C559.327 279.666 556.125 292.257 564.987 309.189C573.849 326.12 583.886 326.103 589.37 320.683C594.854 315.264 601.621 306.067 600.014 289.696C598.408 273.325 563.954 263.649 559.327 279.666Z" fill="url(#paint32_linear_471_4235)"/>
<path d="M587.75 290.587C587.75 290.587 573.042 268.104 559.253 285.798L559.003 292.234C559.003 292.234 542.851 290.317 545.679 275.505C548.504 260.693 562.465 251.435 580.443 257.851C598.421 264.267 608.721 270.844 609.882 283.729C611.043 296.611 600.793 293.786 600.793 293.786C600.793 293.786 597.449 284.715 592.697 283.773C587.945 282.831 589.181 289.905 589.181 289.905L587.75 290.587Z" fill="url(#paint33_linear_471_4235)"/>
<path d="M591.517 290.286C591.517 290.286 583.89 278.775 591.706 277.057C599.522 275.339 598.311 288.275 597.467 293.061L591.517 290.286Z" fill="url(#paint34_linear_471_4235)"/>
<path d="M566.799 434.014L583.443 417.973L606.467 427.699C606.467 427.699 629.385 431.25 642.503 427.699C655.621 424.149 655.621 424.149 655.621 424.149L685.262 414.922L689.916 428.077C691.097 431.418 689.909 435.127 687.02 437.179C684.456 439.002 681.449 441.003 679.535 441.843C675.63 443.551 583.308 440.662 583.308 440.662L566.799 434.014Z" fill="url(#paint35_linear_471_4235)"/>
<path d="M629.783 441.577C629.708 441.58 629.634 441.584 629.56 441.58L533.013 441.476C530.627 441.472 528.693 439.539 528.696 437.149C528.7 434.763 530.644 432.789 533.023 432.833L629.57 432.937C631.956 432.941 633.89 434.878 633.886 437.264C633.883 439.576 632.064 441.462 629.783 441.577Z" fill="url(#paint36_linear_471_4235)"/>
<path d="M446.222 353.916H526.628C532.561 353.916 537.957 357.338 540.488 362.704L577.659 441.523H477.737C473.913 441.523 470.481 439.187 469.073 435.634L440.249 362.697C438.585 358.485 441.69 353.916 446.222 353.916Z" fill="url(#paint37_linear_471_4235)"/>
<path d="M502.868 394.329C504.61 399.742 503.324 405 499.993 406.07C496.662 407.143 492.552 403.623 490.807 398.21C489.065 392.797 490.351 387.539 493.682 386.469C497.013 385.396 501.127 388.916 502.868 394.329Z" fill="#7D97F4"/>
<path d="M739.853 601.952C739.853 601.952 740.865 607.577 741.267 614.256C741.439 617.101 739.329 619.575 736.491 619.852C726.61 620.81 704.116 622.579 689.753 620.506C687.742 620.216 686.942 617.746 688.43 616.359C694.353 610.841 708.656 600.109 732.195 597.763L739.853 601.952Z" fill="url(#paint38_linear_471_4235)"/>
<path d="M744.766 589.269L739.772 601.516C739.087 603.194 737.386 604.236 735.58 604.047C734.355 603.919 732.907 603.686 731.5 603.258C728.682 602.4 727.089 599.414 727.933 596.589L731.703 583.974L744.766 589.269Z" fill="url(#paint39_linear_471_4235)"/>
<path d="M830.186 611.705C830.186 611.705 820.179 620.075 816.282 630.813C815.208 633.766 817.476 636.878 820.618 636.878H841.208C844.222 636.878 846.53 634.168 846.007 631.198C844.694 623.787 840.911 611.739 830.186 611.705Z" fill="url(#paint40_linear_471_4235)"/>
<path d="M842.579 600.811C842.579 600.811 840.557 609.758 839.005 615.667C838.721 616.74 837.577 617.327 836.535 616.956C833.42 615.842 830.885 615.35 829.039 615.596C828.189 615.711 827.443 615.002 827.433 614.141L827.24 599.285L842.579 600.811Z" fill="url(#paint41_linear_471_4235)"/>
<path d="M789.368 399.533L728.513 585.189C728.513 585.189 740.186 592.833 745.745 592.516L818.027 443.311C818.027 443.311 830.676 535.245 824.547 601.246L845.251 602.826C845.251 602.826 878.915 434.159 853.419 376.388L789.368 399.533Z" fill="url(#paint42_linear_471_4235)"/>
<path d="M817.64 441.708C817.664 441.708 817.691 441.705 817.714 441.705C818.038 441.664 818.268 441.371 818.224 441.047L815.862 422.303C815.821 421.979 815.531 421.756 815.203 421.793C814.879 421.834 814.65 422.127 814.694 422.451L817.056 441.195C817.093 441.489 817.346 441.708 817.64 441.708Z" fill="#7D97F4"/>
<path d="M777.962 236.167C777.962 236.167 827.265 240.544 820.292 275.676C820.292 275.676 847.548 326.967 860.288 387.383C860.703 389.351 859.386 391.268 857.405 391.605L775.296 405.665C773.031 406.053 770.848 404.639 770.271 402.415L750.653 326.592L743.009 361.846L718.717 355.518L739.165 251.931C739.165 251.931 742.017 236.815 777.962 236.167Z" fill="#FF3874"/>
<path d="M750.235 323.204C750.278 323.204 750.322 323.201 750.366 323.191C750.697 323.12 750.906 322.793 750.835 322.462L743.991 291.035C743.92 290.705 743.596 290.499 743.262 290.566C742.931 290.637 742.722 290.965 742.793 291.295L749.637 322.722C749.701 323.009 749.954 323.204 750.235 323.204Z" fill="#CA2556"/>
<path d="M755.192 416.721C757.777 415.3 760.808 414.905 763.67 415.617L769.383 417.038C770.598 417.342 771.8 416.505 771.941 415.259L777.854 362.639C785.245 366.149 795.909 365.73 799.426 365.474L785.819 427.507H738.203L755.192 416.721Z" fill="url(#paint43_linear_471_4235)"/>
<path d="M628.68 302.584L630.117 297.802C630.944 295.048 632.979 292.824 635.649 291.751L661.679 281.282C661.679 281.282 662.07 277.944 656.178 275.676C650.285 273.409 651.662 266.807 651.662 266.807C651.662 266.807 659.715 270.479 671.5 276.304C678.239 279.635 682.022 285.517 684.027 289.942L743.009 361.846L736.084 366.605C726.978 372.861 714.454 369.787 709.281 360.027L677.328 298.757C661.284 303.573 645.051 304.497 628.68 302.584Z" fill="url(#paint44_linear_471_4235)"/>
<path d="M761.988 202.625L777.151 245.067C777.151 245.067 763.722 255.566 753.922 252.016L746.281 227.687C746.281 227.687 752.12 197.951 761.988 202.625Z" fill="url(#paint45_linear_471_4235)"/>
<path d="M716.728 187.381C716.728 188.036 731.334 228.733 731.334 228.733L754.394 219.898L746.281 179.268C746.281 179.268 716.728 176.433 716.728 187.381Z" fill="url(#paint46_linear_471_4235)"/>
<path d="M742.239 189.166L748.185 210.222C748.263 210.492 748.3 210.765 748.3 211.045C748.303 212.763 747.878 218.672 741.857 217.869C736.397 217.14 731.402 216.556 728.223 218.051C726.795 218.723 726.114 220.363 726.647 221.848C727.977 225.547 731.122 233.822 734.952 240.595C735.729 241.969 737.436 242.505 738.874 241.851C743.204 239.88 752.225 235.469 758.647 230.221C759.518 229.509 759.936 228.392 759.727 227.288C758.718 221.902 755.704 205.521 755.573 200.826C755.448 196.419 760.392 193.057 762.569 191.792C763.281 191.377 763.79 190.695 763.983 189.892C764.664 187.057 765.245 180.638 757.058 179.224C755.343 178.927 754.226 177.287 754.574 175.583C755.265 172.191 755.046 167.2 748.604 165.36C742.056 163.491 737.936 167.432 735.843 170.453C734.996 171.675 733.41 172.073 732.053 171.465C731.281 171.121 730.346 171.104 729.343 171.951C727.99 173.092 725.935 172.744 724.939 171.283C723.029 168.472 719.563 165.667 713.691 167.567C703.273 170.939 703.769 182.95 707.589 189.48C711.41 196.01 722.496 191.714 727.747 187.384C731.74 184.094 737.814 186.061 740.497 187.195C741.354 187.55 741.986 188.279 742.239 189.166Z" fill="url(#paint47_linear_471_4235)"/>
<path d="M757.664 208.507C757.664 208.507 751.498 196.844 755.575 193.179C759.652 189.517 766.56 190.115 766.375 199.237C766.145 210.586 757.664 208.507 757.664 208.507Z" fill="url(#paint48_linear_471_4235)"/>
<path d="M794.641 366.267C798.006 366.267 800.408 366.011 800.668 365.984L801.107 365.937L819.061 282.231C819.132 281.9 818.923 281.576 818.592 281.505C818.258 281.431 817.937 281.643 817.866 281.974L800.098 364.809C797.425 365.046 783.16 365.99 775.627 360.655L791.178 287.931L787.932 281.812C787.773 281.515 787.402 281.4 787.105 281.559C786.808 281.718 786.693 282.089 786.852 282.386L789.889 288.109L774.264 361.168L774.574 361.401C780.018 365.494 788.786 366.267 794.641 366.267Z" fill="#CA2556"/>
<path d="M256.419 621.472C256.007 621.472 255.589 621.381 255.184 621.192C253.598 620.446 252.865 618.438 253.547 616.707L319.15 450.247C319.832 448.516 321.671 447.716 323.261 448.462C324.847 449.207 325.579 451.215 324.898 452.947L259.294 619.407C258.785 620.699 257.63 621.472 256.419 621.472Z" fill="#7D97F4"/>
<path d="M330.325 621.472C329.114 621.472 327.96 620.699 327.45 619.407L261.847 452.946C261.165 451.215 261.897 449.207 263.484 448.461C265.07 447.716 266.909 448.515 267.594 450.247L333.197 616.707C333.879 618.438 333.147 620.446 331.561 621.192C331.156 621.384 330.737 621.472 330.325 621.472Z" fill="#7D97F4"/>
<path d="M701.657 621.472C701.245 621.472 700.827 621.381 700.422 621.192C698.836 620.446 698.104 618.438 698.785 616.707L764.389 450.247C765.07 448.515 766.91 447.716 768.499 448.461C770.085 449.207 770.818 451.215 770.136 452.946L704.533 619.407C704.023 620.699 702.869 621.472 701.657 621.472Z" fill="#7D97F4"/>
<path d="M775.563 621.472C774.351 621.472 773.197 620.699 772.687 619.407L707.084 452.946C706.402 451.215 707.135 449.207 708.721 448.461C710.307 447.716 712.146 448.515 712.831 450.247L778.435 616.707C779.116 618.438 778.384 620.446 776.798 621.192C776.396 621.384 775.974 621.472 775.563 621.472Z" fill="#7D97F4"/>
<path d="M692.137 438.492H787.155V428.685H692.137C694.172 428.688 694.172 438.492 692.137 438.492Z" fill="#BDD0FB"/>
<path d="M786.028 438.492C786.649 438.492 787.155 437.986 787.155 437.365V429.815C787.155 429.195 786.649 428.688 786.028 428.688H690.368C689.747 428.688 689.241 428.189 689.241 427.581C689.241 426.97 689.747 426.474 690.368 426.474H792.595C794.863 426.474 796.699 428.31 796.699 430.578V436.845C796.699 438.981 794.968 440.713 792.832 440.713H690.368C689.747 440.713 689.241 440.213 689.241 439.606C689.241 438.998 689.747 438.499 690.368 438.499H786.028V438.492Z" fill="url(#paint49_linear_471_4235)"/>
<path d="M800.93 445.103C801.25 444.01 800.815 442.876 799.745 442.015C798.676 441.155 797.083 440.659 795.402 440.659H226.058C223.847 440.659 221.789 441.405 220.597 442.64C219.406 443.875 219.247 445.427 220.172 446.757L226.341 455.616C227.755 457.644 230.816 458.943 234.184 458.943H791.491C794.622 458.943 797.319 457.469 797.913 455.43L800.93 445.103Z" fill="#7D97F4"/>
<defs>
<linearGradient id="paint0_linear_471_4235" x1="438.875" y1="575.82" x2="277.931" y2="747.579" gradientUnits="userSpaceOnUse">
<stop stop-color="#09005D"/>
<stop offset="1" stop-color="#1A0F91"/>
</linearGradient>
<linearGradient id="paint1_linear_471_4235" x1="387.046" y1="588.196" x2="401.196" y2="588.331" gradientUnits="userSpaceOnUse">
<stop stop-color="#FEBBBA"/>
<stop offset="1" stop-color="#FF928E"/>
</linearGradient>
<linearGradient id="paint2_linear_471_4235" x1="453.289" y1="379.973" x2="315.986" y2="562.416" gradientUnits="userSpaceOnUse">
<stop stop-color="#09005D"/>
<stop offset="1" stop-color="#1A0F91"/>
</linearGradient>
<linearGradient id="paint3_linear_471_4235" x1="403.451" y1="542.621" x2="242.5" y2="714.387" gradientUnits="userSpaceOnUse">
<stop stop-color="#09005D"/>
<stop offset="1" stop-color="#1A0F91"/>
</linearGradient>
<linearGradient id="paint4_linear_471_4235" x1="336.057" y1="586.984" x2="348.273" y2="587.1" gradientUnits="userSpaceOnUse">
<stop stop-color="#FEBBBA"/>
<stop offset="1" stop-color="#FF928E"/>
</linearGradient>
<linearGradient id="paint5_linear_471_4235" x1="429.298" y1="361.919" x2="291.997" y2="544.359" gradientUnits="userSpaceOnUse">
<stop stop-color="#09005D"/>
<stop offset="1" stop-color="#1A0F91"/>
</linearGradient>
<linearGradient id="paint6_linear_471_4235" x1="451.301" y1="224.527" x2="501.741" y2="276.321" gradientUnits="userSpaceOnUse">
<stop stop-color="#FEBBBA"/>
<stop offset="1" stop-color="#FF928E"/>
</linearGradient>
<linearGradient id="paint7_linear_471_4235" x1="510.211" y1="263.716" x2="555.017" y2="230.903" gradientUnits="userSpaceOnUse">
<stop stop-color="#FEBBBA"/>
<stop offset="1" stop-color="#FF928E"/>
</linearGradient>
<linearGradient id="paint8_linear_471_4235" x1="536.514" y1="241.972" x2="572.932" y2="234.76" gradientUnits="userSpaceOnUse">
<stop stop-color="#FEBBBA"/>
<stop offset="1" stop-color="#FF928E"/>
</linearGradient>
<linearGradient id="paint9_linear_471_4235" x1="289.632" y1="320.479" x2="381.117" y2="321.348" gradientUnits="userSpaceOnUse">
<stop stop-color="#FEBBBA"/>
<stop offset="1" stop-color="#FF928E"/>
</linearGradient>
<linearGradient id="paint10_linear_471_4235" x1="360.812" y1="223.346" x2="396.984" y2="223.689" gradientUnits="userSpaceOnUse">
<stop stop-color="#FEBBBA"/>
<stop offset="1" stop-color="#FF928E"/>
</linearGradient>
<linearGradient id="paint11_linear_471_4235" x1="405.804" y1="200.761" x2="366.266" y2="176.127" gradientUnits="userSpaceOnUse">
<stop stop-color="#FEBBBA"/>
<stop offset="1" stop-color="#FF928E"/>
</linearGradient>
<linearGradient id="paint12_linear_471_4235" x1="345.458" y1="150.358" x2="396.449" y2="191.424" gradientUnits="userSpaceOnUse">
<stop stop-color="#09005D"/>
<stop offset="1" stop-color="#1A0F91"/>
</linearGradient>
<linearGradient id="paint13_linear_471_4235" x1="395.272" y1="209.707" x2="359.699" y2="187.544" gradientUnits="userSpaceOnUse">
<stop stop-color="#FEBBBA"/>
<stop offset="1" stop-color="#FF928E"/>
</linearGradient>
<linearGradient id="paint14_linear_471_4235" x1="405.648" y1="262.35" x2="456.129" y2="472.687" gradientUnits="userSpaceOnUse">
<stop stop-color="#09005D"/>
<stop offset="1" stop-color="#1A0F91"/>
</linearGradient>
<linearGradient id="paint15_linear_471_4235" x1="371.057" y1="317.995" x2="399.659" y2="317.995" gradientUnits="userSpaceOnUse">
<stop stop-color="#FEBBBA"/>
<stop offset="1" stop-color="#FF928E"/>
</linearGradient>
<linearGradient id="paint16_linear_471_4235" x1="266.353" y1="594.345" x2="281.439" y2="594.345" gradientUnits="userSpaceOnUse">
<stop stop-color="#FEBBBA"/>
<stop offset="1" stop-color="#FF928E"/>
</linearGradient>
<linearGradient id="paint17_linear_471_4235" x1="438.274" y1="380.027" x2="269.021" y2="505.274" gradientUnits="userSpaceOnUse">
<stop stop-color="#09005D"/>
<stop offset="1" stop-color="#1A0F91"/>
</linearGradient>
<linearGradient id="paint18_linear_471_4235" x1="337.809" y1="595.615" x2="355.82" y2="595.615" gradientUnits="userSpaceOnUse">
<stop stop-color="#FEBBBA"/>
<stop offset="1" stop-color="#FF928E"/>
</linearGradient>
<linearGradient id="paint19_linear_471_4235" x1="270.473" y1="509.402" x2="484.871" y2="361.581" gradientUnits="userSpaceOnUse">
<stop stop-color="#09005D"/>
<stop offset="1" stop-color="#1A0F91"/>
</linearGradient>
<linearGradient id="paint20_linear_471_4235" x1="237.763" y1="341.809" x2="246.643" y2="319.417" gradientUnits="userSpaceOnUse">
<stop stop-color="#FEBBBA"/>
<stop offset="1" stop-color="#FF928E"/>
</linearGradient>
<linearGradient id="paint21_linear_471_4235" x1="313.625" y1="428.894" x2="355.229" y2="428.894" gradientUnits="userSpaceOnUse">
<stop stop-color="#FEBBBA"/>
<stop offset="1" stop-color="#FF928E"/>
</linearGradient>
<linearGradient id="paint22_linear_471_4235" x1="264.875" y1="296.27" x2="225.129" y2="335.913" gradientUnits="userSpaceOnUse">
<stop stop-color="#FEBBBA"/>
<stop offset="1" stop-color="#FF928E"/>
</linearGradient>
<linearGradient id="paint23_linear_471_4235" x1="230.304" y1="273.662" x2="277.118" y2="319.922" gradientUnits="userSpaceOnUse">
<stop stop-color="#09005D"/>
<stop offset="1" stop-color="#1A0F91"/>
</linearGradient>
<linearGradient id="paint24_linear_471_4235" x1="258.448" y1="289.827" x2="218.703" y2="329.47" gradientUnits="userSpaceOnUse">
<stop stop-color="#FEBBBA"/>
<stop offset="1" stop-color="#FF928E"/>
</linearGradient>
<linearGradient id="paint25_linear_471_4235" x1="-8601.9" y1="-9088.53" x2="-8455.11" y2="-8931.59" gradientUnits="userSpaceOnUse">
<stop stop-color="#09005D"/>
<stop offset="1" stop-color="#1A0F91"/>
</linearGradient>
<linearGradient id="paint26_linear_471_4235" x1="12805.1" y1="-3691.29" x2="12600.9" y2="-3624.37" gradientUnits="userSpaceOnUse">
<stop stop-color="#09005D"/>
<stop offset="1" stop-color="#1A0F91"/>
</linearGradient>
<linearGradient id="paint27_linear_471_4235" x1="531.485" y1="531.828" x2="593.822" y2="531.828" gradientUnits="userSpaceOnUse">
<stop stop-color="#FEBBBA"/>
<stop offset="1" stop-color="#FF928E"/>
</linearGradient>
<linearGradient id="paint28_linear_471_4235" x1="458.292" y1="536.087" x2="589.836" y2="536.087" gradientUnits="userSpaceOnUse">
<stop stop-color="#FEBBBA"/>
<stop offset="1" stop-color="#FF928E"/>
</linearGradient>
<linearGradient id="paint29_linear_471_4235" x1="539.458" y1="467.465" x2="686.825" y2="467.465" gradientUnits="userSpaceOnUse">
<stop stop-color="#09005D"/>
<stop offset="1" stop-color="#1A0F91"/>
</linearGradient>
<linearGradient id="paint30_linear_471_4235" x1="643.263" y1="221.329" x2="621.564" y2="335.328" gradientUnits="userSpaceOnUse">
<stop stop-color="#09005D"/>
<stop offset="1" stop-color="#1A0F91"/>
</linearGradient>
<linearGradient id="paint31_linear_471_4235" x1="607.354" y1="363.955" x2="598.474" y2="306.978" gradientUnits="userSpaceOnUse">
<stop stop-color="#FEBBBA"/>
<stop offset="1" stop-color="#FF928E"/>
</linearGradient>
<linearGradient id="paint32_linear_471_4235" x1="559.076" y1="303.558" x2="625.649" y2="281.1" gradientUnits="userSpaceOnUse">
<stop stop-color="#FEBBBA"/>
<stop offset="1" stop-color="#FF928E"/>
</linearGradient>
<linearGradient id="paint33_linear_471_4235" x1="544.876" y1="244.135" x2="622.6" y2="330.304" gradientUnits="userSpaceOnUse">
<stop stop-color="#09005D"/>
<stop offset="1" stop-color="#1A0F91"/>
</linearGradient>
<linearGradient id="paint34_linear_471_4235" x1="557.095" y1="297.682" x2="623.667" y2="275.225" gradientUnits="userSpaceOnUse">
<stop stop-color="#FEBBBA"/>
<stop offset="1" stop-color="#FF928E"/>
</linearGradient>
<linearGradient id="paint35_linear_471_4235" x1="643.816" y1="428.649" x2="767.385" y2="428.649" gradientUnits="userSpaceOnUse">
<stop stop-color="#FEBBBA"/>
<stop offset="1" stop-color="#FF928E"/>
</linearGradient>
<linearGradient id="paint36_linear_471_4235" x1="646.162" y1="415.924" x2="569.521" y2="441.06" gradientUnits="userSpaceOnUse">
<stop stop-color="#09005D"/>
<stop offset="1" stop-color="#1A0F91"/>
</linearGradient>
<linearGradient id="paint37_linear_471_4235" x1="540.88" y1="365.672" x2="485.686" y2="424.008" gradientUnits="userSpaceOnUse">
<stop stop-color="#09005D"/>
<stop offset="1" stop-color="#1A0F91"/>
</linearGradient>
<linearGradient id="paint38_linear_471_4235" x1="713.641" y1="703.839" x2="712.826" y2="790.229" gradientUnits="userSpaceOnUse">
<stop stop-color="#09005D"/>
<stop offset="1" stop-color="#1A0F91"/>
</linearGradient>
<linearGradient id="paint39_linear_471_4235" x1="734.466" y1="607.363" x2="738.949" y2="572.317" gradientUnits="userSpaceOnUse">
<stop stop-color="#FEBBBA"/>
<stop offset="1" stop-color="#FF928E"/>
</linearGradient>
<linearGradient id="paint40_linear_471_4235" x1="830.36" y1="704.94" x2="829.545" y2="791.33" gradientUnits="userSpaceOnUse">
<stop stop-color="#09005D"/>
<stop offset="1" stop-color="#1A0F91"/>
</linearGradient>
<linearGradient id="paint41_linear_471_4235" x1="832.437" y1="619.373" x2="836.805" y2="585.223" gradientUnits="userSpaceOnUse">
<stop stop-color="#FEBBBA"/>
<stop offset="1" stop-color="#FF928E"/>
</linearGradient>
<linearGradient id="paint42_linear_471_4235" x1="862.963" y1="489.607" x2="728.513" y2="489.607" gradientUnits="userSpaceOnUse">
<stop stop-color="#09005D"/>
<stop offset="1" stop-color="#1A0F91"/>
</linearGradient>
<linearGradient id="paint43_linear_471_4235" x1="839.946" y1="333.026" x2="740.087" y2="439.655" gradientUnits="userSpaceOnUse">
<stop stop-color="#FEBBBA"/>
<stop offset="1" stop-color="#FF928E"/>
</linearGradient>
<linearGradient id="paint44_linear_471_4235" x1="743.007" y1="318.333" x2="628.679" y2="318.333" gradientUnits="userSpaceOnUse">
<stop stop-color="#FEBBBA"/>
<stop offset="1" stop-color="#FF928E"/>
</linearGradient>
<linearGradient id="paint45_linear_471_4235" x1="784.166" y1="254.211" x2="744.377" y2="213.388" gradientUnits="userSpaceOnUse">
<stop stop-color="#FEBBBA"/>
<stop offset="1" stop-color="#FF928E"/>
</linearGradient>
<linearGradient id="paint46_linear_471_4235" x1="726.462" y1="187.668" x2="776.068" y2="253.294" gradientUnits="userSpaceOnUse">
<stop stop-color="#FEBBBA"/>
<stop offset="1" stop-color="#FF928E"/>
</linearGradient>
<linearGradient id="paint47_linear_471_4235" x1="764.348" y1="203.499" x2="705.092" y2="203.499" gradientUnits="userSpaceOnUse">
<stop stop-color="#09005D"/>
<stop offset="1" stop-color="#1A0F91"/>
</linearGradient>
<linearGradient id="paint48_linear_471_4235" x1="799.116" y1="239.638" x2="759.327" y2="198.816" gradientUnits="userSpaceOnUse">
<stop stop-color="#FEBBBA"/>
<stop offset="1" stop-color="#FF928E"/>
</linearGradient>
<linearGradient id="paint49_linear_471_4235" x1="-1515.48" y1="-5058.74" x2="-1432.52" y2="-4856.95" gradientUnits="userSpaceOnUse">
<stop stop-color="#4F52FF"/>
<stop offset="1" stop-color="#4042E2"/>
</linearGradient>
</defs>
</svg>
