<svg width="462" height="401" viewBox="0 0 462 401" fill="none" xmlns="http://www.w3.org/2000/svg">
<path d="M452.376 237.184C443.363 261.775 429.139 286.469 410.576 308.933C407.303 312.896 403.893 316.79 400.346 320.613C391.727 329.907 382.456 338.573 372.603 346.546C368.356 349.983 363.986 353.292 359.493 356.471C352.98 361.086 346.222 365.405 339.219 369.43C335.377 371.63 331.465 373.733 327.483 375.74C324.407 377.291 321.286 378.777 318.121 380.197C299.498 388.61 279.831 394.488 259.646 397.674C257.063 398.079 254.463 398.439 251.846 398.756C249.779 399.009 247.699 399.231 245.604 399.421C243.781 399.592 241.95 399.74 240.11 399.865C236.229 400.132 232.317 400.294 228.374 400.352C218.669 400.501 208.965 400.036 199.319 398.958C193.646 398.331 187.92 397.484 182.139 396.419C175.36 395.166 168.764 393.699 162.351 392.019C158.018 390.892 153.766 389.672 149.597 388.359C144.614 386.802 139.755 385.119 135.019 383.309H135.013C123.586 378.974 112.504 373.779 101.863 367.768C90.703 361.483 80.1019 354.253 70.1759 346.159C66.9406 343.518 63.8199 340.815 60.8139 338.049C56.6926 334.272 52.7806 330.388 49.0779 326.397C10.3259 284.747 -5.49909 233.125 2.93891 191.55C20.1519 106.807 89.8569 81.918 149.599 88.627C169.227 90.827 187.78 96.445 203.042 104.465C212.001 109.204 221.494 112.855 231.319 115.34C235.515 116.403 239.764 117.244 244.049 117.859H244.055C247.144 118.308 250.222 118.643 253.291 118.866C257.233 119.166 261.164 119.284 265.064 119.251C266.577 119.238 268.09 119.207 269.603 119.151C306.234 117.815 340.611 104.086 371.609 98.997C420.79 90.926 485.766 146.091 452.376 237.184Z" fill="#117B6B"/>
<path d="M452.375 237.184C443.362 261.776 429.138 286.469 410.575 308.933C407.302 312.896 403.892 316.79 400.345 320.613C391.727 329.907 382.455 338.574 372.602 346.547C368.355 349.984 363.985 353.293 359.492 356.472C352.979 361.087 346.221 365.406 339.218 369.431C335.376 371.631 331.464 373.734 327.482 375.741C324.406 377.292 321.285 378.778 318.12 380.198C299.497 388.611 279.83 394.489 259.645 397.675C257.062 398.08 254.462 398.44 251.845 398.757C249.778 399.01 247.698 399.232 245.603 399.422C243.78 399.593 241.949 399.741 240.109 399.866C236.228 400.133 232.316 400.295 228.373 400.353C218.669 400.503 208.965 400.038 199.32 398.961C193.647 398.334 187.921 397.487 182.14 396.422C175.361 395.169 168.765 393.702 162.352 392.022C158.019 390.895 153.767 389.675 149.598 388.362V88.627C169.226 90.827 187.779 96.445 203.041 104.465C211.999 109.204 221.492 112.854 231.317 115.34C235.513 116.403 239.762 117.244 244.047 117.859H244.053C247.142 118.308 250.22 118.643 253.289 118.866C257.231 119.166 261.162 119.284 265.062 119.251C266.575 119.238 268.088 119.207 269.601 119.151C306.232 117.815 340.609 104.086 371.607 98.997C420.792 90.925 485.765 146.091 452.375 237.184Z" fill="#179E8A"/>
<path d="M259.644 331.437V397.672C257.061 398.077 254.461 398.437 251.844 398.754C249.777 399.007 247.696 399.229 245.602 399.419V331.437H259.644Z" fill="#4A9AE2"/>
<path d="M259.644 331.437H245.604V350.845H259.644V331.437Z" fill="#4788D6"/>
<path d="M158.621 334.6H320.621L323.502 317H158.621V334.6Z" fill="#5AA3E7"/>
<path d="M252.532 108.525H336.057C339.155 108.525 342.215 109.206 345.021 110.519C347.827 111.832 350.31 113.745 352.295 116.124C354.28 118.503 355.718 121.288 356.508 124.284C357.298 127.279 357.42 130.412 356.866 133.46L323.497 316.998H196.976L231.721 125.898C232.606 121.024 235.174 116.614 238.977 113.44C242.781 110.265 247.578 108.525 252.532 108.525V108.525Z" fill="#5AA3E7"/>
<path d="M241.172 108.525H324.697C327.795 108.525 330.855 109.206 333.661 110.519C336.467 111.832 338.95 113.745 340.935 116.124C342.92 118.503 344.358 121.288 345.148 124.284C345.938 127.279 346.06 130.412 345.506 133.46L312.135 316.998H185.616L220.363 125.898C221.247 121.024 223.815 116.614 227.618 113.439C231.421 110.264 236.218 108.525 241.172 108.525V108.525Z" fill="#6AACEC"/>
<path d="M251.888 286.317C251.881 286.772 251.864 287.241 251.844 287.717C251.463 295.737 248.857 305.51 240.108 313.036C238.375 314.526 236.509 315.853 234.532 316.999C232.537 318.159 230.481 319.21 228.372 320.146C214.112 326.525 196.472 328.861 183.912 329.69C174.391 330.324 167.795 330.084 167.795 330.084L135.019 383.31H135.013C123.586 378.975 112.504 373.78 101.863 367.769C116.551 342.007 135.519 308.75 141.925 297.597C144.559 293.014 150.125 289.305 157.072 286.317C179.107 276.834 215.023 274.581 215.023 274.581L223.757 274.17L240.108 273.397L250.223 272.923C250.223 272.923 250.363 273.367 250.559 274.17C250.717 274.802 250.907 275.664 251.098 276.709C251.673 279.878 251.938 283.096 251.888 286.317V286.317Z" fill="#202070"/>
<path d="M307.388 286.317C307.223 296.027 303.964 308.839 290.032 316.997C278.922 323.497 264.465 326.802 251.843 328.473C247.665 329.023 243.689 329.391 240.107 329.644C235.366 329.973 231.307 330.088 228.371 330.118C225.171 330.15 223.295 330.081 223.295 330.081L199.318 398.957C193.645 398.33 187.919 397.483 182.138 396.418C175.359 395.165 168.763 393.698 162.35 392.018C167.168 377.351 175.889 351.271 183.911 329.686C189.139 315.61 194.07 303.436 197.425 297.594C200.059 293.011 205.625 289.302 212.573 286.314C220.701 282.814 230.708 280.307 240.108 278.528C243.924 277.805 247.647 277.205 251.097 276.705C262.197 275.105 270.53 274.577 270.53 274.577L277.567 274.248L279.258 274.166L305.724 272.919L305.78 273.108C305.838 273.308 305.938 273.666 306.059 274.166C307.009 278.145 307.456 282.227 307.388 286.317V286.317Z" fill="#34318B"/>
<path d="M277.094 237.184C277.094 238.539 277.089 239.891 277.081 241.241C277.037 258.341 276.808 274.17 276.808 274.17L240.108 267.587C240.108 267.587 239.4 253.059 239.298 241.241C239.285 239.841 239.285 238.481 239.291 237.184C239.317 231.753 239.538 227.484 240.107 226.511C240.226 226.246 240.305 225.964 240.341 225.676C240.493 224.836 240.641 223.442 240.791 221.613C241.012 218.732 241.222 214.764 241.412 210.113C241.468 208.81 241.523 207.455 241.577 206.05C241.709 202.45 241.835 198.569 241.949 194.541C241.988 193.201 242.025 191.841 242.064 190.484C242.17 186.679 242.264 182.806 242.354 178.975C242.386 177.615 242.419 176.254 242.454 174.912C242.543 170.925 242.619 167.037 242.694 163.405C242.72 162.012 242.745 160.659 242.77 159.347C242.98 148.611 243.112 140.903 243.157 140.719C243.309 140.119 250.973 128.533 250.973 128.533L269.177 124.09L276.81 132.858C276.81 132.858 276.678 144.618 276.589 159.341C276.582 160.67 276.576 162.023 276.57 163.399C276.552 167.146 276.539 171.025 276.533 174.906C276.526 176.261 276.526 177.622 276.526 178.969C276.526 182.895 276.533 186.781 276.545 190.478C276.551 191.857 276.558 193.212 276.569 194.535C276.601 198.797 276.645 202.714 276.722 206.044C276.746 207.336 276.778 208.538 276.809 209.644C276.815 209.796 276.822 209.954 276.822 210.112C276.922 213.456 276.993 217.38 277.032 221.612C277.045 222.941 277.058 224.296 277.064 225.675C277.088 229.404 277.094 233.296 277.094 237.184Z" fill="white"/>
<path d="M276.588 159.345C276.581 160.674 276.575 162.027 276.569 163.403H242.691C242.717 162.01 242.742 160.657 242.767 159.345H276.588Z" fill="#EFEFF4"/>
<path d="M276.531 174.91C276.524 176.265 276.524 177.626 276.524 178.973H242.355C242.387 177.613 242.419 176.252 242.455 174.91H276.531Z" fill="#EFEFF4"/>
<path d="M276.569 194.539H241.951C241.99 193.199 242.027 191.839 242.066 190.482H276.545C276.551 191.861 276.557 193.22 276.569 194.539Z" fill="#EFEFF4"/>
<path d="M276.821 210.11H241.413C241.47 208.807 241.525 207.452 241.578 206.047H276.722C276.746 207.339 276.778 208.541 276.809 209.647C276.815 209.794 276.821 209.952 276.821 210.11Z" fill="#EFEFF4"/>
<path d="M277.063 225.675H240.342C240.494 224.835 240.642 223.441 240.792 221.612H277.031C277.043 222.941 277.054 224.296 277.063 225.675Z" fill="#EFEFF4"/>
<path d="M277.094 237.184C277.094 238.539 277.089 239.891 277.081 241.241H239.299C239.286 239.841 239.286 238.481 239.292 237.184H277.094Z" fill="#EFEFF4"/>
<path d="M221.705 208.196L210.057 250.385L160.646 252.739L155.682 234.648L187.923 226.769L195.123 191.554L210.277 193.879L221.705 208.196Z" fill="url(#paint0_linear_975_429)"/>
<path d="M313.846 270.22C312.646 274.43 274.436 276.233 271.815 272.694C270.625 271.087 268.137 252.894 266.858 227.911C265.321 197.932 265.529 158.174 271.802 125.524L291.887 134.247L298.325 143.875L310.84 159.213C310.84 159.213 310.308 186.703 309.74 204.933C309.701 206.061 309.671 207.149 309.632 208.193C309.034 226.188 315.051 266.01 313.846 270.22Z" fill="url(#paint1_linear_975_429)"/>
<path d="M313.846 270.22C312.646 274.43 274.436 276.233 271.815 272.694C270.625 271.087 268.137 252.894 266.858 227.911C272.518 225.625 280.663 219.277 282.241 201.584C284.702 173.936 296.926 159.066 296.926 159.066C300.044 171.89 300.044 185.273 296.926 198.097L309.744 204.933C309.705 206.06 309.675 207.149 309.636 208.193C309.034 226.189 315.049 266.01 313.846 270.22Z" fill="url(#paint2_linear_975_429)"/>
<path d="M243.154 272.694C243.154 272.694 209.764 273.531 210.365 272.025C210.966 270.519 216.98 258.49 220.244 247.793C223.508 237.096 224.802 196.218 224.802 196.218L221.702 208.193C221.668 208.187 221.635 208.179 221.602 208.169C220.963 208.004 217.394 207.08 212.987 205.916C204.764 203.732 193.649 200.693 193.365 200.13C192.908 199.23 197.118 180.576 201.03 167.638C204.942 154.7 212.164 137.559 250.081 128.531C242.881 153.497 243.154 272.694 243.154 272.694Z" fill="url(#paint3_linear_975_429)"/>
<path d="M318.846 208.192C318.846 208.192 306.51 256.552 295.564 256.775C284.618 256.998 235.671 249.989 227.885 249.312C222.636 248.7 217.527 247.212 212.77 244.912C212.77 244.912 201.49 253.033 200.021 251.001C198.59 249.032 204.168 241.401 204.478 240.981C204.097 241.31 195.465 248.93 193.59 247.057C191.672 245.139 202.503 228.89 208.934 228.669C215.365 228.448 229.69 235.321 229.69 235.321L282.241 230.808L284.141 222.725L289.128 201.582L318.846 208.192Z" fill="url(#paint4_linear_975_429)"/>
<path d="M269.173 124.09C269.173 124.09 293.992 123.864 312.267 137.176C330.542 150.488 331.867 169.737 318.85 208.192C312.095 206.773 289.115 203.387 289.132 201.582C289.149 199.777 297.847 157.03 297.847 157.03L269.173 124.09Z" fill="url(#paint5_linear_975_429)"/>
<path d="M293.54 229.184C293.387 230.113 282.24 230.81 282.24 230.81L284.14 222.727C288.867 225.651 293.616 228.714 293.54 229.184Z" fill="url(#paint6_linear_975_429)"/>
<path d="M226.53 156.806C226.53 156.806 225.405 169.222 224.803 196.222L221.603 208.173C220.964 208.008 217.395 207.084 212.988 205.92C216.495 200.165 220.096 192.253 220.438 183.664C221.119 166.51 226.53 156.806 226.53 156.806Z" fill="url(#paint7_linear_975_429)"/>
<path d="M224.95 81.902C215.024 82.502 205.25 67.161 210.361 61.445C215.472 55.729 222.694 61.445 222.694 61.445C222.694 61.445 216.528 56.332 221.341 50.315C226.154 44.298 234.277 55.428 249.168 53.172C264.059 50.916 277.718 58.782 274.889 71.223C285.869 71.223 282.56 86.264 277.747 95.74C272.934 105.216 264.511 119.204 254.583 108.674C248.915 102.531 242.124 97.5279 234.577 93.935L224.95 81.902Z" fill="url(#paint8_linear_975_429)"/>
<path d="M261.352 138.083C253.306 139.507 249.319 135.299 247.668 132.52C246.661 130.83 246.54 128.234 245.8 125.126C245.277 122.799 244.384 120.57 243.155 118.526L265.113 102.056C264.905 104.911 266.277 109.702 267.829 114.228C269.629 119.483 271.684 124.388 271.803 125.52C272.031 127.626 269.397 136.652 261.352 138.083Z" fill="url(#paint9_linear_975_429)"/>
<path d="M267.828 114.232C263.213 125.341 254.661 127.432 245.799 125.126C245.276 122.799 244.383 120.57 243.154 118.526L265.112 102.056C264.903 104.917 266.276 109.706 267.828 114.232Z" fill="url(#paint10_linear_975_429)"/>
<path d="M223.598 76.827C251.123 81.227 261.727 76.827 261.727 76.827C261.727 76.827 264.492 92.227 266.41 92.904C268.328 93.581 267.029 84.838 271.317 83.766C275.605 82.694 278.537 90.195 275.661 94.539C272.785 98.883 268.78 97.358 268.78 97.358C268.78 97.358 262.073 120.77 244.695 121.158C227.317 121.546 223.147 99.273 223.373 93.068C223.599 86.863 223.146 80.661 223.598 76.827Z" fill="url(#paint11_linear_975_429)"/>
<path d="M224.751 250.385H152.79C151.941 250.385 151.127 250.722 150.527 251.322C149.927 251.922 149.59 252.736 149.59 253.585V253.585C149.59 254.434 149.927 255.248 150.527 255.848C151.127 256.448 151.941 256.785 152.79 256.785H224.748C225.597 256.785 226.41 256.448 227.011 255.848C227.611 255.248 227.948 254.434 227.948 253.585V253.585C227.948 252.737 227.611 251.923 227.012 251.323C226.412 250.723 225.599 250.386 224.751 250.385V250.385Z" fill="#202070"/>
<path d="M158.7 175.986H61.2319C60.4839 175.959 59.7398 176.105 59.0575 176.413C58.3752 176.72 57.7732 177.182 57.2983 177.76C56.8234 178.339 56.4885 179.019 56.3196 179.748C56.1508 180.477 56.1526 181.236 56.3249 181.964L69.7559 256.78H179.183L165.752 181.964C165.418 180.321 164.541 178.838 163.262 177.753C161.982 176.669 160.376 176.046 158.7 175.986V175.986Z" fill="#202070"/>
<path d="M116.815 226.511L106.115 218.076L112.283 209.641L122.983 218.076L116.815 226.511Z" fill="#4848AA"/>
<path d="M189.616 253.579C189.616 253.746 189.566 253.909 189.474 254.048C189.381 254.187 189.249 254.295 189.095 254.359C188.941 254.423 188.771 254.439 188.607 254.407C188.444 254.374 188.293 254.294 188.175 254.176C188.057 254.058 187.977 253.907 187.944 253.744C187.912 253.58 187.928 253.41 187.992 253.256C188.056 253.102 188.164 252.97 188.303 252.877C188.442 252.785 188.605 252.735 188.772 252.735C188.996 252.735 189.21 252.824 189.368 252.983C189.527 253.141 189.616 253.355 189.616 253.579V253.579Z" fill="#4848AA"/>
<path d="M202.196 254.426C202.662 254.426 203.04 254.048 203.04 253.582C203.04 253.116 202.662 252.738 202.196 252.738C201.73 252.738 201.352 253.116 201.352 253.582C201.352 254.048 201.73 254.426 202.196 254.426Z" fill="#4848AA"/>
<path d="M206.086 253.579C206.086 253.694 206.052 253.806 205.988 253.902C205.924 253.997 205.833 254.072 205.727 254.116C205.621 254.16 205.504 254.171 205.391 254.149C205.279 254.126 205.175 254.071 205.094 253.99C205.013 253.909 204.957 253.805 204.935 253.692C204.913 253.58 204.924 253.463 204.968 253.357C205.012 253.251 205.086 253.16 205.182 253.096C205.278 253.032 205.39 252.998 205.505 252.998C205.581 252.998 205.657 253.013 205.727 253.042C205.798 253.071 205.862 253.114 205.916 253.168C205.97 253.222 206.013 253.286 206.042 253.357C206.071 253.427 206.086 253.503 206.086 253.579Z" fill="#4848AA"/>
<path d="M196.732 254.162H193.532C193.456 254.162 193.38 254.147 193.309 254.118C193.239 254.089 193.175 254.046 193.121 253.992C193.067 253.938 193.024 253.874 192.995 253.803C192.966 253.733 192.951 253.657 192.951 253.581V253.581C192.951 253.427 193.012 253.279 193.121 253.17C193.23 253.061 193.378 253 193.532 253H196.732C196.886 253 197.034 253.061 197.143 253.17C197.252 253.279 197.313 253.427 197.313 253.581V253.581C197.313 253.657 197.298 253.733 197.269 253.803C197.24 253.874 197.197 253.938 197.143 253.992C197.089 254.046 197.025 254.089 196.954 254.118C196.884 254.147 196.808 254.162 196.732 254.162V254.162Z" fill="#4848AA"/>
<path d="M348.152 267.587H140.182C138.75 267.587 137.376 267.018 136.364 266.005C135.351 264.993 134.782 263.619 134.782 262.187V262.187C134.782 260.755 135.351 259.381 136.364 258.369C137.376 257.356 138.75 256.787 140.182 256.787H348.152C349.584 256.787 350.958 257.356 351.97 258.369C352.983 259.381 353.552 260.755 353.552 262.187C353.552 263.619 352.983 264.993 351.97 266.005C350.958 267.018 349.584 267.587 348.152 267.587V267.587Z" fill="#89BEF5"/>
<path d="M248.578 267.587H40.609C39.1768 267.587 37.8033 267.018 36.7906 266.005C35.7779 264.993 35.209 263.619 35.209 262.187C35.209 260.755 35.7779 259.381 36.7906 258.369C37.8033 257.356 39.1768 256.787 40.609 256.787H248.578C250.01 256.787 251.384 257.356 252.396 258.369C253.409 259.381 253.978 260.755 253.978 262.187C253.978 263.619 253.409 264.993 252.396 266.005C251.384 267.018 250.01 267.587 248.578 267.587V267.587Z" fill="#A9D0FF"/>
<path d="M240.108 267.587V399.863C236.227 400.13 232.315 400.292 228.372 400.35V286.317H60.8139V338.05C56.6926 334.273 52.7805 330.389 49.0779 326.398V267.587H240.108Z" fill="#89BEF5"/>
<path d="M240.108 267.586H49.0779V274.169H240.108V267.586Z" fill="#6AACEC"/>
<path d="M339.216 267.587V369.429C335.374 371.629 331.462 373.732 327.48 375.739V286.317H251.844V398.754C247.969 399.221 244.057 399.59 240.108 399.862V267.587H339.216Z" fill="#6AACEC"/>
<path d="M339.215 267.586H240.108V274.169H339.215V267.586Z" fill="#4788D6"/>
<path d="M70.176 286.317V346.16C66.9406 343.519 63.82 340.816 60.814 338.05V286.317H70.176Z" fill="#6AACEC"/>
<path d="M327.481 286.317V375.74C324.405 377.291 321.284 378.777 318.119 380.197V286.317H327.481Z" fill="#4788D6"/>
<path d="M410.574 308.933C399.207 322.71 386.486 335.311 372.601 346.546L380.001 237.184H405.72L410.574 308.933Z" fill="#8FC9EF"/>
<path d="M380.967 230.809C377.846 197.551 388.206 162.751 400.8 146.62C408.468 169.879 381.951 186.12 388.964 236.486" fill="url(#paint12_linear_975_429)"/>
<path d="M381.155 225.454C385.589 192.344 376.608 157.154 364.664 140.547C356.083 163.485 381.937 180.763 372.94 230.809" fill="url(#paint13_linear_975_429)"/>
<path d="M383.634 234.723C384.534 201.331 397.472 175.867 411.913 161.374C416.726 185.386 388.447 198.323 389.351 249.162" fill="url(#paint14_linear_975_429)"/>
<path d="M383.638 247.525C382.738 214.133 369.8 188.671 355.361 174.176C350.548 198.188 378.825 211.124 377.924 261.964" fill="url(#paint15_linear_975_429)"/>
<path d="M400.343 320.608C391.725 329.902 382.453 338.569 372.6 346.542C368.353 349.979 363.983 353.288 359.49 356.467L368.269 226.761H393.988L400.343 320.608Z" fill="#F0F8FF"/>
<path d="M187.621 45.577H111.574C110.145 45.577 108.986 46.7357 108.986 48.165V105.486C108.986 106.915 110.145 108.074 111.574 108.074H187.621C189.05 108.074 190.209 106.915 190.209 105.486V48.165C190.209 46.7357 189.05 45.577 187.621 45.577Z" fill="url(#paint16_linear_975_429)"/>
<path d="M128.049 56.031H119.324C119.035 56.031 118.758 55.9162 118.553 55.7117C118.349 55.5073 118.234 55.2301 118.234 54.941C118.234 54.652 118.349 54.3749 118.553 54.1705C118.758 53.9662 119.035 53.8513 119.324 53.851H128.049C128.338 53.8513 128.615 53.9662 128.819 54.1705C129.024 54.3749 129.139 54.652 129.139 54.941V54.941C129.139 55.2301 129.024 55.5073 128.82 55.7117C128.615 55.9162 128.338 56.031 128.049 56.031Z" fill="white"/>
<path opacity="0.44" d="M132.185 61.371H119.325C119.036 61.3707 118.759 61.2558 118.554 61.0515C118.35 60.8471 118.235 60.57 118.235 60.281V60.281C118.235 60.1377 118.263 59.9958 118.318 59.8634C118.372 59.731 118.452 59.6107 118.554 59.5093C118.655 59.4079 118.775 59.3274 118.907 59.2724C119.04 59.2175 119.182 59.1891 119.325 59.189H132.185C132.328 59.1891 132.47 59.2175 132.602 59.2724C132.735 59.3274 132.855 59.4079 132.956 59.5093C133.057 59.6107 133.137 59.731 133.192 59.8634C133.247 59.9958 133.275 60.1377 133.275 60.281V60.281C133.275 60.57 133.16 60.8471 132.955 61.0515C132.751 61.2558 132.474 61.3707 132.185 61.371V61.371Z" fill="white"/>
<path opacity="0.15" d="M118.234 86.512C127.034 86.512 126.434 92.277 133.275 92.277C140.116 92.277 138.766 81.168 147.564 81.168C156.362 81.168 153.656 86.721 159.523 86.721C165.39 86.721 164.035 80.464 170.123 80.464C176.211 80.464 173.504 88.479 181.856 88.479" stroke="black" stroke-width="0.929" stroke-linecap="round" stroke-linejoin="round"/>
<path d="M118.234 83.03C127.034 83.03 126.434 92.28 133.275 92.28C140.116 92.28 138.766 74.457 147.564 74.457C156.362 74.457 153.656 83.369 159.523 83.369C165.39 83.369 164.035 73.328 170.123 73.328C176.211 73.328 173.504 86.188 181.856 86.188" stroke="white" stroke-width="1.177" stroke-linecap="round" stroke-linejoin="round"/>
<path d="M92.7389 64.755C107.941 64.755 120.265 52.4312 120.265 37.229C120.265 22.0268 107.941 9.703 92.7389 9.703C77.5367 9.703 65.2129 22.0268 65.2129 37.229C65.2129 52.4312 77.5367 64.755 92.7389 64.755Z" fill="url(#paint17_linear_975_429)"/>
<path d="M92.739 55.956C103.082 55.956 111.466 47.5716 111.466 37.229C111.466 26.8864 103.082 18.502 92.739 18.502C82.3963 18.502 74.012 26.8864 74.012 37.229C74.012 47.5716 82.3963 55.956 92.739 55.956Z" fill="url(#paint18_linear_975_429)"/>
<path d="M91.5949 45.838V43.786C90.3169 43.7496 89.0626 43.4324 87.9209 42.857L88.5709 40.328C89.6702 40.9349 90.9023 41.2612 92.1579 41.278C93.3899 41.278 94.2339 40.804 94.2339 39.939C94.2339 39.118 93.5419 38.599 91.9419 38.058C89.6309 37.281 88.0509 36.2 88.0509 34.105C88.0509 32.205 89.3909 30.711 91.7039 30.258V28.205H93.8199V30.105C94.9029 30.1212 95.9705 30.3641 96.9539 30.818L96.3279 33.26C95.3588 32.7835 94.2947 32.5319 93.2149 32.524C91.8149 32.524 91.3569 33.124 91.3569 33.735C91.3569 34.446 92.1129 34.901 93.9509 35.593C96.5219 36.501 97.5609 37.693 97.5609 39.634C97.5609 41.558 96.1979 43.2 93.7139 43.634V45.834L91.5949 45.838Z" fill="url(#paint19_linear_975_429)"/>
<path d="M300.762 2.86501V29.182C300.762 29.8806 300.484 30.5506 299.991 31.0445C299.497 31.5385 298.827 31.816 298.128 31.816H259.561L252.146 39.231C251.977 39.4 251.762 39.5151 251.528 39.5618C251.294 39.6084 251.051 39.5846 250.83 39.4933C250.61 39.402 250.421 39.2473 250.288 39.0488C250.156 38.8502 250.085 38.6168 250.085 38.378V2.86501C250.085 2.16643 250.362 1.49646 250.856 1.00249C251.35 0.508516 252.02 0.231003 252.719 0.231003H298.128C298.827 0.231003 299.497 0.508516 299.991 1.00249C300.484 1.49646 300.762 2.16643 300.762 2.86501Z" fill="#BDE1FF"/>
<path d="M264.255 16.811C264.255 17.235 264.129 17.6496 263.893 18.0021C263.658 18.3547 263.323 18.6295 262.931 18.7918C262.54 18.9541 262.108 18.9965 261.693 18.9138C261.277 18.8311 260.895 18.6269 260.595 18.327C260.295 18.0272 260.091 17.6452 260.008 17.2293C259.925 16.8134 259.968 16.3823 260.13 15.9905C260.292 15.5988 260.567 15.2639 260.92 15.0283C261.272 14.7927 261.687 14.667 262.111 14.667C262.679 14.667 263.225 14.8929 263.627 15.295C264.029 15.697 264.255 16.2424 264.255 16.811Z" fill="white"/>
<path d="M277.567 16.811C277.567 17.235 277.441 17.6496 277.206 18.0021C276.97 18.3547 276.635 18.6295 276.243 18.7918C275.852 18.9541 275.42 18.9965 275.005 18.9138C274.589 18.8311 274.207 18.6269 273.907 18.327C273.607 18.0272 273.403 17.6452 273.32 17.2293C273.237 16.8134 273.28 16.3823 273.442 15.9905C273.604 15.5988 273.879 15.2639 274.232 15.0283C274.584 14.7927 274.999 14.667 275.423 14.667C275.991 14.667 276.537 14.8929 276.939 15.295C277.341 15.697 277.567 16.2424 277.567 16.811Z" fill="white"/>
<path d="M290.879 16.811C290.879 17.235 290.753 17.6496 290.518 18.0021C290.282 18.3547 289.947 18.6295 289.555 18.7918C289.164 18.9541 288.732 18.9965 288.317 18.9138C287.901 18.8311 287.519 18.6269 287.219 18.327C286.919 18.0272 286.715 17.6452 286.632 17.2293C286.549 16.8134 286.592 16.3823 286.754 15.9905C286.916 15.5988 287.191 15.2639 287.544 15.0283C287.896 14.7927 288.311 14.667 288.735 14.667C289.303 14.667 289.849 14.8929 290.251 15.295C290.653 15.697 290.879 16.2424 290.879 16.811Z" fill="white"/>
<path d="M348.512 49.041H325.658C323.29 49.041 321.371 50.9604 321.371 53.328V76.182C321.371 78.5497 323.29 80.469 325.658 80.469H348.512C350.879 80.469 352.799 78.5497 352.799 76.182V53.328C352.799 50.9604 350.879 49.041 348.512 49.041Z" fill="url(#paint20_linear_975_429)"/>
<path d="M330.768 64.475L335.168 68.875L343.403 60.64" stroke="white" stroke-width="1.57" stroke-linecap="round" stroke-linejoin="round"/>
<defs>
<linearGradient id="paint0_linear_975_429" x1="157.266" y1="133.857" x2="205.031" y2="292.325" gradientUnits="userSpaceOnUse">
<stop stop-color="#FFD5D3"/>
<stop offset="1" stop-color="#FE96A6"/>
</linearGradient>
<linearGradient id="paint1_linear_975_429" x1="295.451" y1="133.573" x2="223.956" y2="258.667" gradientUnits="userSpaceOnUse">
<stop stop-color="#52C4FF"/>
<stop offset="1" stop-color="#2C84FF"/>
</linearGradient>
<linearGradient id="paint2_linear_975_429" x1="208.678" y1="-34.0684" x2="385.949" y2="63.5161" gradientUnits="userSpaceOnUse">
<stop stop-color="#52C4FF"/>
<stop offset="1" stop-color="#2C84FF"/>
</linearGradient>
<linearGradient id="paint3_linear_975_429" x1="224.543" y1="129.397" x2="169.808" y2="272.511" gradientUnits="userSpaceOnUse">
<stop stop-color="#52C4FF"/>
<stop offset="1" stop-color="#2C84FF"/>
</linearGradient>
<linearGradient id="paint4_linear_975_429" x1="281.578" y1="225.428" x2="334.323" y2="65.2705" gradientUnits="userSpaceOnUse">
<stop stop-color="#FFD5D3"/>
<stop offset="1" stop-color="#FE96A6"/>
</linearGradient>
<linearGradient id="paint5_linear_975_429" x1="299.085" y1="133.846" x2="279.584" y2="292.997" gradientUnits="userSpaceOnUse">
<stop stop-color="#52C4FF"/>
<stop offset="1" stop-color="#2C84FF"/>
</linearGradient>
<linearGradient id="paint6_linear_975_429" x1="293.292" y1="197.581" x2="289.264" y2="244.834" gradientUnits="userSpaceOnUse">
<stop stop-color="#FFD5D3"/>
<stop offset="1" stop-color="#FE96A6"/>
</linearGradient>
<linearGradient id="paint7_linear_975_429" x1="187.583" y1="74.9784" x2="245.86" y2="88.3671" gradientUnits="userSpaceOnUse">
<stop stop-color="#52C4FF"/>
<stop offset="1" stop-color="#2C84FF"/>
</linearGradient>
<linearGradient id="paint8_linear_975_429" x1="333.026" y1="357.114" x2="250.302" y2="2.95346" gradientUnits="userSpaceOnUse">
<stop stop-color="#002757"/>
<stop offset="1" stop-color="#061F3E"/>
</linearGradient>
<linearGradient id="paint9_linear_975_429" x1="278.982" y1="192.149" x2="195.202" y2="20.2148" gradientUnits="userSpaceOnUse">
<stop stop-color="#FFD5D3"/>
<stop offset="1" stop-color="#FE96A6"/>
</linearGradient>
<linearGradient id="paint10_linear_975_429" x1="278.931" y1="191.111" x2="251.414" y2="95.5569" gradientUnits="userSpaceOnUse">
<stop stop-color="#FFD5D3"/>
<stop offset="1" stop-color="#FE96A6"/>
</linearGradient>
<linearGradient id="paint11_linear_975_429" x1="226.143" y1="112.473" x2="320.098" y2="-38.6351" gradientUnits="userSpaceOnUse">
<stop stop-color="#FFD5D3"/>
<stop offset="1" stop-color="#FE96A6"/>
</linearGradient>
<linearGradient id="paint12_linear_975_429" x1="411.646" y1="136.016" x2="386.507" y2="140.376" gradientUnits="userSpaceOnUse">
<stop stop-color="#56E281"/>
<stop offset="1" stop-color="#00966A"/>
</linearGradient>
<linearGradient id="paint13_linear_975_429" x1="360.232" y1="148.039" x2="375.386" y2="150.495" gradientUnits="userSpaceOnUse">
<stop stop-color="#56E281"/>
<stop offset="1" stop-color="#00966A"/>
</linearGradient>
<linearGradient id="paint14_linear_975_429" x1="398.943" y1="175.859" x2="366.549" y2="273.289" gradientUnits="userSpaceOnUse">
<stop stop-color="#56E281"/>
<stop offset="1" stop-color="#00966A"/>
</linearGradient>
<linearGradient id="paint15_linear_975_429" x1="370.607" y1="174.703" x2="338.211" y2="272.131" gradientUnits="userSpaceOnUse">
<stop stop-color="#56E281"/>
<stop offset="1" stop-color="#00966A"/>
</linearGradient>
<linearGradient id="paint16_linear_975_429" x1="103.625" y1="-10.8578" x2="146.722" y2="127.94" gradientUnits="userSpaceOnUse">
<stop stop-color="#F4ABFF"/>
<stop offset="1" stop-color="#9552FF"/>
</linearGradient>
<linearGradient id="paint17_linear_975_429" x1="70.8832" y1="-10.1157" x2="142.671" y2="145.516" gradientUnits="userSpaceOnUse">
<stop stop-color="#FFF489"/>
<stop offset="1" stop-color="#FE7F20"/>
</linearGradient>
<linearGradient id="paint18_linear_975_429" x1="63.6372" y1="-42.9226" x2="101.99" y2="62.6603" gradientUnits="userSpaceOnUse">
<stop stop-color="#FFF489"/>
<stop offset="1" stop-color="#FE7F20"/>
</linearGradient>
<linearGradient id="paint19_linear_975_429" x1="89.2223" y1="33.4596" x2="203.932" y2="69.4893" gradientUnits="userSpaceOnUse">
<stop stop-color="#FFF489"/>
<stop offset="1" stop-color="#FE7F20"/>
</linearGradient>
<linearGradient id="paint20_linear_975_429" x1="319.799" y1="35.0241" x2="363.107" y2="109.477" gradientUnits="userSpaceOnUse">
<stop stop-color="#31E282"/>
<stop offset="1" stop-color="#006391"/>
</linearGradient>
</defs>
</svg>
